<mxfile host="app.diagrams.net" agent="Mozilla/5.0 (Windows NT 10.0; Win64; x64) AppleWebKit/537.36 (KHTML, like Gecko) Chrome/131.0.0.0 Safari/537.36 Edg/131.0.0.0" version="25.0.3">
  <diagram id="MUILRtpII4ORc_CDgej2" name="Page-1">
    <mxGraphModel dx="1050" dy="611" grid="1" gridSize="10" guides="1" tooltips="1" connect="1" arrows="1" fold="1" page="1" pageScale="1" pageWidth="850" pageHeight="1100" math="0" shadow="0">
      <root>
        <mxCell id="0" />
        <mxCell id="1" parent="0" />
        <mxCell id="S9w4djGVkDMpA97l86fg-1" value="" style="edgeStyle=orthogonalEdgeStyle;rounded=0;orthogonalLoop=1;jettySize=auto;html=1;" parent="1" source="S9w4djGVkDMpA97l86fg-2" target="S9w4djGVkDMpA97l86fg-4" edge="1">
          <mxGeometry relative="1" as="geometry" />
        </mxCell>
        <mxCell id="S9w4djGVkDMpA97l86fg-2" value="Start" style="ellipse;whiteSpace=wrap;html=1;" parent="1" vertex="1">
          <mxGeometry x="255" y="10" width="120" height="80" as="geometry" />
        </mxCell>
        <mxCell id="S9w4djGVkDMpA97l86fg-20" value="" style="edgeStyle=orthogonalEdgeStyle;rounded=0;orthogonalLoop=1;jettySize=auto;html=1;" parent="1" source="S9w4djGVkDMpA97l86fg-4" target="S9w4djGVkDMpA97l86fg-19" edge="1">
          <mxGeometry relative="1" as="geometry" />
        </mxCell>
        <mxCell id="S9w4djGVkDMpA97l86fg-4" value="Expression" style="rounded=0;whiteSpace=wrap;html=1;" parent="1" vertex="1">
          <mxGeometry x="255" y="130" width="120" height="60" as="geometry" />
        </mxCell>
        <mxCell id="S9w4djGVkDMpA97l86fg-22" value="" style="edgeStyle=orthogonalEdgeStyle;rounded=0;orthogonalLoop=1;jettySize=auto;html=1;" parent="1" source="S9w4djGVkDMpA97l86fg-19" target="S9w4djGVkDMpA97l86fg-21" edge="1">
          <mxGeometry relative="1" as="geometry" />
        </mxCell>
        <mxCell id="S9w4djGVkDMpA97l86fg-43" style="edgeStyle=orthogonalEdgeStyle;rounded=0;orthogonalLoop=1;jettySize=auto;html=1;entryX=0.5;entryY=0;entryDx=0;entryDy=0;" parent="1" source="S9w4djGVkDMpA97l86fg-19" target="S9w4djGVkDMpA97l86fg-39" edge="1">
          <mxGeometry relative="1" as="geometry">
            <mxPoint x="140" y="780" as="targetPoint" />
            <Array as="points">
              <mxPoint x="141" y="260" />
              <mxPoint x="141" y="760" />
              <mxPoint x="315" y="760" />
            </Array>
          </mxGeometry>
        </mxCell>
        <mxCell id="S9w4djGVkDMpA97l86fg-19" value="if expression is empty" style="rhombus;whiteSpace=wrap;html=1;" parent="1" vertex="1">
          <mxGeometry x="223.13" y="220" width="183.75" height="80" as="geometry" />
        </mxCell>
        <mxCell id="S9w4djGVkDMpA97l86fg-24" value="" style="edgeStyle=orthogonalEdgeStyle;rounded=0;orthogonalLoop=1;jettySize=auto;html=1;" parent="1" source="S9w4djGVkDMpA97l86fg-21" target="S9w4djGVkDMpA97l86fg-23" edge="1">
          <mxGeometry relative="1" as="geometry" />
        </mxCell>
        <mxCell id="S9w4djGVkDMpA97l86fg-30" value="" style="edgeStyle=orthogonalEdgeStyle;rounded=0;orthogonalLoop=1;jettySize=auto;html=1;" parent="1" source="S9w4djGVkDMpA97l86fg-21" target="S9w4djGVkDMpA97l86fg-29" edge="1">
          <mxGeometry relative="1" as="geometry" />
        </mxCell>
        <mxCell id="S9w4djGVkDMpA97l86fg-21" value="if last char in expression is num" style="rhombus;whiteSpace=wrap;html=1;" parent="1" vertex="1">
          <mxGeometry x="216.57" y="340" width="196.87" height="80" as="geometry" />
        </mxCell>
        <mxCell id="S9w4djGVkDMpA97l86fg-26" value="" style="edgeStyle=orthogonalEdgeStyle;rounded=0;orthogonalLoop=1;jettySize=auto;html=1;" parent="1" source="S9w4djGVkDMpA97l86fg-23" target="S9w4djGVkDMpA97l86fg-25" edge="1">
          <mxGeometry relative="1" as="geometry" />
        </mxCell>
        <mxCell id="S9w4djGVkDMpA97l86fg-23" value="regex to catch last num in expression" style="whiteSpace=wrap;html=1;" parent="1" vertex="1">
          <mxGeometry x="531.875" y="350" width="120" height="60" as="geometry" />
        </mxCell>
        <mxCell id="S9w4djGVkDMpA97l86fg-38" style="edgeStyle=orthogonalEdgeStyle;rounded=0;orthogonalLoop=1;jettySize=auto;html=1;entryX=0.5;entryY=0;entryDx=0;entryDy=0;" parent="1" source="S9w4djGVkDMpA97l86fg-25" target="S9w4djGVkDMpA97l86fg-36" edge="1">
          <mxGeometry relative="1" as="geometry">
            <Array as="points">
              <mxPoint x="592" y="660" />
              <mxPoint x="315" y="660" />
            </Array>
          </mxGeometry>
        </mxCell>
        <mxCell id="S9w4djGVkDMpA97l86fg-25" value="replace last num in expresion by num/100 (calculated)" style="whiteSpace=wrap;html=1;" parent="1" vertex="1">
          <mxGeometry x="531.875" y="460" width="120" height="60" as="geometry" />
        </mxCell>
        <mxCell id="S9w4djGVkDMpA97l86fg-32" value="" style="edgeStyle=orthogonalEdgeStyle;rounded=0;orthogonalLoop=1;jettySize=auto;html=1;" parent="1" source="S9w4djGVkDMpA97l86fg-29" target="S9w4djGVkDMpA97l86fg-31" edge="1">
          <mxGeometry relative="1" as="geometry" />
        </mxCell>
        <mxCell id="S9w4djGVkDMpA97l86fg-29" value="use stack to determine expression in&amp;nbsp;Parentheses (sub_expression)" style="whiteSpace=wrap;html=1;" parent="1" vertex="1">
          <mxGeometry x="254.995" y="460" width="120" height="60" as="geometry" />
        </mxCell>
        <mxCell id="S9w4djGVkDMpA97l86fg-37" value="" style="edgeStyle=orthogonalEdgeStyle;rounded=0;orthogonalLoop=1;jettySize=auto;html=1;" parent="1" source="S9w4djGVkDMpA97l86fg-31" target="S9w4djGVkDMpA97l86fg-36" edge="1">
          <mxGeometry relative="1" as="geometry" />
        </mxCell>
        <mxCell id="S9w4djGVkDMpA97l86fg-31" value="replace sub_expression by sub_expression/100 (calculated)" style="whiteSpace=wrap;html=1;" parent="1" vertex="1">
          <mxGeometry x="227.48999999999998" y="570" width="175" height="60" as="geometry" />
        </mxCell>
        <mxCell id="S9w4djGVkDMpA97l86fg-40" value="" style="edgeStyle=orthogonalEdgeStyle;rounded=0;orthogonalLoop=1;jettySize=auto;html=1;" parent="1" source="S9w4djGVkDMpA97l86fg-36" target="S9w4djGVkDMpA97l86fg-39" edge="1">
          <mxGeometry relative="1" as="geometry" />
        </mxCell>
        <mxCell id="S9w4djGVkDMpA97l86fg-36" value="return processed expression" style="rounded=0;whiteSpace=wrap;html=1;" parent="1" vertex="1">
          <mxGeometry x="254.99" y="680" width="120" height="60" as="geometry" />
        </mxCell>
        <mxCell id="S9w4djGVkDMpA97l86fg-39" value="end" style="ellipse;whiteSpace=wrap;html=1;rounded=0;" parent="1" vertex="1">
          <mxGeometry x="274.99" y="780" width="80" height="80" as="geometry" />
        </mxCell>
        <mxCell id="S9w4djGVkDMpA97l86fg-44" value="yes" style="text;html=1;align=center;verticalAlign=middle;whiteSpace=wrap;rounded=0;" parent="1" vertex="1">
          <mxGeometry x="180" y="230" width="60" height="30" as="geometry" />
        </mxCell>
        <mxCell id="S9w4djGVkDMpA97l86fg-45" value="no" style="text;html=1;align=center;verticalAlign=middle;whiteSpace=wrap;rounded=0;" parent="1" vertex="1">
          <mxGeometry x="255" y="300" width="60" height="30" as="geometry" />
        </mxCell>
        <mxCell id="S9w4djGVkDMpA97l86fg-46" value="no" style="text;html=1;align=center;verticalAlign=middle;whiteSpace=wrap;rounded=0;" parent="1" vertex="1">
          <mxGeometry x="254.99" y="420" width="60" height="30" as="geometry" />
        </mxCell>
        <mxCell id="S9w4djGVkDMpA97l86fg-48" value="yes" style="text;html=1;align=center;verticalAlign=middle;whiteSpace=wrap;rounded=0;" parent="1" vertex="1">
          <mxGeometry x="406.88" y="350" width="60" height="30" as="geometry" />
        </mxCell>
      </root>
    </mxGraphModel>
  </diagram>
</mxfile>
